# xmcd
#
# Track frame offsets:
#	150
#	14712
#	28212
#	50712
#	75600
#	87212
#	117775
#	134550
#	147887
#	171150
#	192550
#	216000
#	229200
#
# Disc length: 3338 seconds
# Revision: 6
# Processed by: cddbd v1.5.2PL0 Copyright (c) Steve Scherf et al.
# Submitted via: dBpowerAMP V12.0
#
DISCID=be0d080d
DTITLE=Clarence "Gatemouth" Brown - American Music, Texas Style
DYEAR=1999
DGENRE=Blues
TTITLE0=Rock my Blues Away
TTITLE1=Half Steppin'
TTITLE2=Hootie Blues
TTITLE3=Front Burner
TTITLE4=I'm Beginning to See The Light
TTITLE5=Swamp Ghost
TTITLE6=Without me Baby
TTITLE7=Gate Swings Again
TTITLE8=Strange Things Happen
TTITLE9=Don't Get Around Much Anymore
TTITLE10=Guitar in my Hand
TTITLE11=Jumpin' The Blues
TTITLE12=Things Ain't What They Used to be
EXTD=
EXTT0=
EXTT1=
EXTT2=
EXTT3=
EXTT4=
EXTT5=
EXTT6=
EXTT7=
EXTT8=
EXTT9=
EXTT10=
EXTT11=
EXTT12=
PLAYORDER=
